<?xml version="1.0" encoding="UTF-8" standalone="no"?>
<!DOCTYPE svg PUBLIC "-//W3C//DTD SVG 1.1//EN" "http://www.w3.org/Graphics/SVG/1.1/DTD/svg11.dtd">
<svg width="100%" height="100%" viewBox="0 0 820 50" version="1.1" xmlns="http://www.w3.org/2000/svg" xmlns:xlink="http://www.w3.org/1999/xlink" xml:space="preserve" xmlns:serif="http://www.serif.com/" style="fill-rule:evenodd;clip-rule:evenodd;">
    <path d="M820,8L820,42C820,46.415 816.415,50 812,50L8,50C3.585,50 0,46.415 0,42L0,8C0,3.585 3.585,0 8,0L812,0C816.415,0 820,3.585 820,8Z" style="fill:rgb(13,17,23);"/>
    <path d="M60,8L60,42C60,46.415 56.415,50 52,50L8,50C3.585,50 0,46.415 0,42L0,8C0,3.585 3.585,0 8,0L52,0C56.415,0 60,3.585 60,8Z" style="fill:url(#_Linear1);"/>
    <g transform="matrix(1,0,0,1,157,0)">
        <circle cx="18" cy="25" r="3" style="fill:rgb(0,255,65);"/>
    </g>
    <g transform="matrix(1,0,0,1,40,0)">
        <circle cx="410" cy="25" r="3" style="fill:rgb(0,255,65);"/>
    </g>
    <g transform="matrix(1,0,0,1,-40,0)">
        <circle cx="410" cy="25" r="3" style="fill:rgb(0,255,65);"/>
    </g>
    <g transform="matrix(1,0,0,1,-210,0)">
        <circle cx="802" cy="25" r="3" style="fill:rgb(0,255,65);"/>
    </g>
    <g transform="matrix(1,0,0,1,100,30)">
        <text x="-64.945px" y="0px" style="font-family:'AppleSymbols', 'Apple Symbols';font-size:16px;fill:rgb(121,192,255);">🌐</text>
        <text x="-41.766px" y="0px" style="font-family:'ArialMT', 'Arial', sans-serif;font-size:16px;fill:rgb(121,192,255);">jedlikowski.dev</text>
    </g>
    <g transform="matrix(1,0,0,1,410,30)">
        <text x="-30.246px" y="0px" style="font-family:'ArialMT', 'Arial', sans-serif;font-size:16px;fill:rgb(121,192,255);">LinkedIn</text>
    </g>
    <g transform="matrix(1,0,0,1,700,30)">
        <text x="-97.492px" y="0px" style="font-family:'AppleColorEmoji', 'Apple Color Emoji';font-size:16px;fill:rgb(121,192,255);">✉️</text>
        <text x="-77.047px" y="0px" style="font-family:'ArialMT', 'Arial', sans-serif;font-size:16px;fill:rgb(121,192,255);">kontakt@jedlikowski.dev</text>
    </g>
    <path d="M255,10L255,40" style="fill:none;fill-rule:nonzero;stroke:rgb(48,54,61);stroke-width:1px;"/>
    <path d="M555,10L555,40" style="fill:none;fill-rule:nonzero;stroke:rgb(48,54,61);stroke-width:1px;"/>
    <defs>
        <linearGradient id="_Linear1" x1="0" y1="0" x2="1" y2="0" gradientUnits="userSpaceOnUse" gradientTransform="matrix(60,0,0,60,0,0)"><stop offset="0" style="stop-color:rgb(0,255,65);stop-opacity:0"/><stop offset="0.5" style="stop-color:rgb(0,255,65);stop-opacity:0.15"/><stop offset="1" style="stop-color:rgb(0,255,65);stop-opacity:0"/></linearGradient>
    </defs>
</svg>
