<?xml version="1.0" encoding="UTF-8" standalone="no"?>
<!DOCTYPE svg PUBLIC "-//W3C//DTD SVG 1.1//EN" "http://www.w3.org/Graphics/SVG/1.1/DTD/svg11.dtd">
<svg width="100%" height="100%" viewBox="0 0 820 312" version="1.1" xmlns="http://www.w3.org/2000/svg" xmlns:xlink="http://www.w3.org/1999/xlink" xml:space="preserve" xmlns:serif="http://www.serif.com/" style="fill-rule:evenodd;clip-rule:evenodd;stroke-linejoin:round;stroke-miterlimit:2;">
    <path d="M820,10L820,302C820,307.519 815.519,312 810,312L10,312C4.481,312 0,307.519 0,302L0,10C0,4.481 4.481,0 10,0L810,0C815.519,0 820,4.481 820,10Z" style="fill:rgb(13,17,23);"/>
    <path d="M820,10L820,22C820,27.519 815.519,32 810,32L10,32C4.481,32 0,27.519 0,22L0,10C0,4.481 4.481,0 10,0L810,0C815.519,0 820,4.481 820,10Z" style="fill:rgb(22,27,34);"/>
    <rect x="0" y="22" width="820" height="10" style="fill:rgb(22,27,34);"/>
    <circle cx="20" cy="16" r="6" style="fill:rgb(255,95,86);"/>
    <circle cx="40" cy="16" r="6" style="fill:rgb(255,189,46);"/>
    <circle cx="60" cy="16" r="6" style="fill:rgb(39,201,63);"/>
    <g transform="matrix(1,0,0,1,410,20)">
        <text x="-57.797px" y="0px" style="font-family:'Menlo-Regular', 'Menlo', monospace;font-size:12px;fill:rgb(139,148,158);">certs.log — less</text>
    </g>
    <g transform="matrix(1,0,0,1,24,54)">
        <text x="0px" y="0px" style="font-family:'Menlo-Regular', 'Menlo', monospace;font-size:14px;fill:rgb(0,255,65);">$ cat /var/log/certs.log</text>
    </g>
    <g transform="matrix(1,0,0,1,24,98)">
        <text x="0px" y="0px" style="font-family:'Menlo-Regular', 'Menlo', monospace;font-size:14px;fill:rgb(0,255,65);">[✓] THM Cybersecurity101 .................. COMPLETED</text>
    </g>
    <g transform="matrix(1,0,0,1,24,142)">
        <text x="0px" y="0px" style="font-family:'Menlo-Regular', 'Menlo', monospace;font-size:14px;fill:rgb(227,179,65);">[~] TryHackMe SOC Level 1 ................. IN PROGRESS</text>
    </g>
    <g transform="matrix(1,0,0,1,24,164)">
        <text x="0px" y="0px" style="font-family:'Menlo-Regular', 'Menlo', monospace;font-size:14px;fill:rgb(227,179,65);">[██████████████░░░░░░] 70%</text>
    </g>
    <g transform="matrix(1,0,0,1,24,208)">
        <text x="0px" y="0px" style="font-family:'Menlo-Regular', 'Menlo', monospace;font-size:14px;fill:rgb(139,148,158);">[ ] CompTIA Security+ ..................... SCHEDULED</text>
    </g>
    <g transform="matrix(1,0,0,1,24,230)">
        <text x="0px" y="0px" style="font-family:'Menlo-Regular', 'Menlo', monospace;font-size:14px;fill:rgb(139,148,158);">[░░░░░░░░░░░░░░░░░░░░]  0%</text>
    </g>
    <g transform="matrix(1,0,0,1,24,274)">
        <g transform="matrix(14,0,0,14,362.43457,0)">
        </g>
        <text x="0px" y="0px" style="font-family:'Menlo-Regular', 'Menlo', monospace;font-size:14px;fill:rgb(74,158,74);">Next milestone: SOC L1 completion → Q2 2026</text>
    </g>
</svg>
